<?xml version="1.0" standalone="no"?>
<!DOCTYPE svg PUBLIC "-//W3C//DTD SVG 20010904//EN"
 "http://www.w3.org/TR/2001/REC-SVG-20010904/DTD/svg10.dtd">
<svg version="1.0" xmlns="http://www.w3.org/2000/svg"
 width="256.000000pt" height="256.000000pt" viewBox="0 0 256.000000 256.000000"
 preserveAspectRatio="xMidYMid meet">
<metadata>
Created by potrace 1.14, written by Peter Selinger 2001-2017
</metadata>
<g transform="translate(0.000000,256.000000) scale(0.100000,-0.100000)"
fill="#000000" stroke="none">
<path d="M1249 2236 c-2 -2 -28 -6 -57 -10 -74 -9 -230 -61 -309 -103 -280
-149 -461 -386 -540 -703 -21 -88 -25 -307 -7 -397 93 -449 459 -763 908 -779
499 -18 909 369 914 864 3 402 -273 732 -673 802 -156 27 -339 -6 -485 -87
-85 -48 -217 -179 -263 -263 -65 -118 -90 -210 -91 -335 -2 -191 36 -304 144
-434 93 -112 200 -177 360 -218 36 -10 199 -11 237 -3 282 64 471 311 449 586
-19 244 -210 429 -453 440 -54 2 -99 -2 -134 -12 -120 -36 -228 -140 -267
-258 -24 -70 -24 -190 -1 -241 66 -147 212 -228 355 -196 48 11 66 22 110 66
59 59 79 111 71 184 -12 108 -142 180 -210 117 -43 -40 -30 -109 23 -127 35
-13 37 -24 10 -59 -16 -21 -27 -25 -69 -25 -159 0 -204 209 -70 329 137 123
355 64 450 -122 20 -39 24 -62 24 -138 0 -84 -2 -95 -38 -166 -67 -136 -192
-219 -337 -224 -96 -4 -147 8 -235 51 -242 118 -331 411 -205 670 145 298 500
398 815 232 78 -42 201 -165 242 -242 60 -114 78 -187 77 -320 0 -128 -13
-191 -60 -294 -86 -187 -267 -340 -469 -397 -33 -9 -105 -18 -160 -20 -176 -6
-332 39 -474 135 -179 122 -301 313 -340 531 -10 57 -8 242 4 295 74 341 312
594 645 687 91 25 316 32 393 12 26 -7 48 -12 50 -12 12 1 106 -30 160 -53
209 -88 407 -287 497 -496 37 -88 68 -210 75 -298 10 -125 13 -134 50 -152 28
-14 38 -14 65 -3 46 19 53 41 46 141 -13 185 -81 400 -165 517 -12 17 -21 35
-21 41 0 6 -4 11 -8 11 -4 0 -15 13 -25 29 -21 36 -148 167 -207 214 -135 106
-310 183 -505 222 -36 8 -290 17 -296 11z"/>
</g>
</svg>
