<?xml version="1.0" encoding="UTF-8"?>
<svg id="Layer_1" data-name="Layer 1" xmlns="http://www.w3.org/2000/svg" viewBox="0 0 285.79 263.06">
  <defs>
    <style>
      .cls-1 {
        fill: none;
        stroke: #000;
        stroke-linecap: round;
        stroke-linejoin: round;
        stroke-width: 10px;
      }
    </style>
  </defs>
  <path class="cls-1" d="m281.05,147.71c-1.07-27.63-8.43-53.16-23.38-76.43C211.71-.23,113.44-16.23,50.5,37.52c-63.2,53.97-60.52,151.97,5.42,198.23,60.06,42.13,140.94,20.73,168.38-44.54,24.62-58.58-6.64-121.72-67.11-135.54-55.02-12.58-106.45,29.42-104.36,85.22,1.77,47.31,51.68,81.24,94.35,64.16,26.87-10.76,42.72-40.42,36.04-67.45-6.15-24.89-32.95-41.36-56.4-34.67-15.63,4.46-26.61,19.35-26.04,35.33.41,11.46,8.78,21.05,20.03,22.95,6.32,1.06,10.7-.62,13.49-5.37"/>
</svg>